<?xml version="1.0" standalone="no"?>
<!DOCTYPE svg PUBLIC "-//W3C//DTD SVG 20010904//EN"
 "http://www.w3.org/TR/2001/REC-SVG-20010904/DTD/svg10.dtd">
<svg version="1.0" xmlns="http://www.w3.org/2000/svg"
 width="512.000000pt" height="512.000000pt" viewBox="0 0 512.000000 512.000000"
 preserveAspectRatio="xMidYMid meet">
<metadata>
Created by potrace 1.14, written by Peter Selinger 2001-2017
</metadata>
<g transform="translate(0.000000,512.000000) scale(0.100000,-0.100000)"
fill="#000000" stroke="none">
<path d="M2310 5088 c-212 -23 -464 -82 -652 -154 -87 -32 -377 -170 -388
-183 -3 -3 -34 -24 -70 -45 -36 -22 -67 -42 -70 -46 -3 -3 -27 -22 -55 -40
-53 -37 -53 -36 -165 -131 -437 -370 -731 -878 -845 -1459 -32 -164 -40 -261
-40 -465 0 -251 23 -437 79 -655 52 -199 157 -451 262 -630 29 -50 155 -242
164 -250 3 -3 35 -41 70 -85 83 -102 221 -240 335 -335 50 -41 92 -77 95 -80
3 -3 32 -23 65 -45 33 -22 62 -42 65 -45 12 -12 133 -82 238 -137 61 -33 109
-63 105 -68 -5 -4 -3 -5 4 -1 6 3 35 -3 65 -15 68 -27 209 -79 228 -84 8 -3
58 -16 110 -29 216 -57 392 -80 630 -80 238 -1 315 6 520 45 97 19 288 69 335
89 11 4 47 18 80 30 116 44 351 164 463 238 478 313 848 783 1020 1297 43 128
58 180 78 270 40 171 61 373 61 565 0 229 -16 367 -71 610 -22 96 -86 287
-131 390 -239 554 -673 1011 -1210 1275 -240 118 -438 183 -685 225 -63 10
-131 22 -150 25 -56 10 -457 12 -540 3z m440 -762 c14 -2 25 -4 25 -6 0 -1 14
-3 30 -5 68 -6 268 -58 290 -74 6 -4 32 -16 60 -26 212 -78 481 -292 629 -499
74 -104 68 -120 -102 -289 -90 -90 -127 -120 -155 -126 -48 -11 -84 11 -130
81 -100 150 -278 300 -421 355 -23 9 -46 20 -51 24 -6 4 -56 20 -110 34 -182
48 -409 41 -575 -19 -346 -125 -597 -421 -677 -797 -14 -70 -17 -137 -17 -399
-1 -375 1 -390 60 -600 14 -49 104 -216 148 -273 169 -225 400 -370 644 -405
61 -9 252 -9 322 0 100 13 275 78 375 141 98 61 203 158 276 257 75 101 82
109 109 118 49 17 82 -4 212 -135 126 -128 146 -159 134 -207 -19 -78 -256
-324 -411 -427 -212 -142 -451 -232 -676 -256 -134 -14 -342 -8 -439 12 -14 2
-50 10 -80 16 -184 36 -443 161 -585 281 -156 133 -271 264 -360 413 -56 94
-122 229 -141 290 -24 75 -55 185 -60 209 -3 17 -9 49 -14 71 -30 138 -34 781
-5 925 3 14 8 39 11 55 31 173 122 410 203 531 17 25 31 47 31 50 0 7 39 62
89 124 67 83 230 240 297 285 32 22 61 42 64 45 6 7 150 90 156 90 2 0 27 11
56 24 45 21 129 52 163 60 6 2 17 6 25 9 26 11 154 36 221 43 35 3 65 8 67 9
4 4 282 -4 312 -9z"/>
</g>
</svg>
